<?xml version="1.0" encoding="utf-8"?>
<!-- Generator: Adobe Illustrator 20.1.0, SVG Export Plug-In . SVG Version: 6.00 Build 0)  -->
<svg version="1.1" id="Layer_1" xmlns="http://www.w3.org/2000/svg" xmlns:xlink="http://www.w3.org/1999/xlink" x="0px" y="0px"
	 viewBox="0 0 245.7 104.3" style="enable-background:new 0 0 245.7 104.3;" xml:space="preserve">
<style type="text/css">
	.st0{fill:#EEF0F3;}
</style>
<g>
	<path class="st0" d="M21.5,41.2H41v5.3H26.8v7.9h10.6v5.3H26.8v7.9h-5.3V41.2z"/>
	<path class="st0" d="M71.3,67.7h-6.3l-4.6-7.1h-4.2v7.1h-5.3V41.2h9.7c5.4,0,9.7,4.3,9.7,9.7c0,3.5-1.8,6.5-4.6,8.3L71.3,67.7z
		 M60.6,55.4c2.4,0,4.4-2,4.4-4.4c0-2.4-2-4.4-4.4-4.4h-4.4v8.8H60.6z"/>
	<path class="st0" d="M103.6,56.3c0,6.4-5.2,11.5-11.5,11.5c-6.4,0-11.5-5.1-11.5-11.5v-15h5.3v15c0,3.4,2.8,6.2,6.2,6.2
		c3.4,0,6.2-2.8,6.2-6.2v-15h5.3V56.3z"/>
	<path class="st0" d="M129,59.8c0,4.4-3.6,7.9-7.9,7.9c-3.8,0-6.9-2.6-7.7-6.1l5.1-1.8c0,1.4,1.2,2.6,2.6,2.6c1.4,0,2.6-1.2,2.6-2.6
		c0-1.4-1.2-2.6-2.6-2.6c-4.4,0-7.9-3.6-7.9-7.9c0-4.4,3.6-7.9,7.9-7.9c3.8,0,6.9,2.6,7.7,6.1l-5.1,1.8c0-1.4-1.2-2.6-2.6-2.6
		c-1.4,0-2.6,1.2-2.6,2.6c0,1.4,1.2,2.6,2.6,2.6C125.4,51.8,129,55.4,129,59.8z M126.6,38.4l-5.6,1.7l-5.6-1.7l1-3.4l4.6,1.4
		l4.6-1.4L126.6,38.4z"/>
	<path class="st0" d="M138.9,41.2h5.3v10l9.2-10h7.2l-9.7,10.6l9.9,15.9h-6.2l-7.4-11.8l-3,3.2v8.6h-5.3V41.2z"/>
	<path class="st0" d="M186.5,63.3h-13.6l-2.4,4.4h-6l15.3-27.9L195,67.7h-6L186.5,63.3z M183.6,58l-3.9-7.2l-3.9,7.2H183.6z"/>
	<path class="st0" d="M213.2,41.2c4.3,0,8.2,2.1,10.6,5.3l0.5,0.7l-4.2,3.2l-0.5-0.7c-1.4-1.9-3.7-3.2-6.4-3.2
		c-4.4,0-7.9,3.6-7.9,7.9c0,4.4,3.6,7.9,7.9,7.9c2.6,0,4.9-1.2,6.4-3.2l0.5-0.7l4.2,3.2l-0.5,0.7c-2.4,3.2-6.2,5.3-10.6,5.3
		c-7.3,0-13.2-5.9-13.2-13.2S205.9,41.2,213.2,41.2z"/>
</g>
<polygon class="st0" points="219,37.1 218,33.8 207.9,36.9 208.9,40.2 "/>
<g>
	<path class="st0" d="M42.2,98.8c10.5,0,20.9-1.1,31.4-0.9c10.7,0.2,21.3,0.7,32,0.1c21.5-1.2,43-1,64.6-1.2
		c9-0.1,17.9,0.4,26.9,0.4c0.9,0,0.9-1.4,0-1.4c-10.7,0-21.4-0.5-32-0.3c-10.8,0.2-21.5,0.1-32.3,0.2c-10.7,0.1-21.4,0.8-32.2,1.1
		c-10.7,0.3-21.3-0.4-31.9-0.3c-8.8,0.1-17.6,0.9-26.4,0.9C41.3,97.4,41.3,98.8,42.2,98.8L42.2,98.8z"/>
</g>
<g>
	<path class="st0" d="M12.5,76.2c0-10.7,0.1-21.4,0.3-32c0.2-7.8,1-16.7-2.7-23.9c-1-1.9-2.7-3.6-4.9-2.4c-3.1,1.8-1.9,5.7,0.5,7.4
		c3.4,2.5,8.8,1.4,12.7,1.2c5.3-0.4,10.6-0.7,15.9-1c20.1-1.3,40.4-0.3,60.5,0.5c0.9,0,0.9-1.4,0-1.4c-10.8-0.4-21.5-0.8-32.3-1
		c-10.7-0.2-21.3,0-32.1,0.7c-5.2,0.4-10.5,0.7-15.7,1c-2.3,0.2-4.7,0.2-6.9-0.5c-2.4-0.8-4.6-4.1-1.7-5.8c2.1-1.2,3.8,4.6,4.1,5.8
		c1.3,4.6,1.2,9.6,1.2,14.4c-0.2,12.4-0.4,24.7-0.4,37.1C11.1,77.1,12.5,77.1,12.5,76.2L12.5,76.2z"/>
</g>
<g>
	<path class="st0" d="M233.2,74.9c0-10.7-0.1-21.4-0.3-32c-0.1-5.3-0.4-10.6,0.3-15.8c0.4-2.9,1.1-6,2.8-8.4
		c1.1-1.6,2.8-1.1,3.4,0.8c0.9,3-3.1,4.3-5.3,4.6c-2.3,0.3-4.7,0-7.1-0.1c-2.7-0.2-5.4-0.4-8.2-0.5c-10.7-0.7-21.3-1.3-32.1-1.1
		c-12.5,0.2-24.9,0.6-37.4,1.1c-0.9,0-0.9,1.4,0,1.4c10.8-0.4,21.5-0.8,32.3-1c10.7-0.2,21.3,0,32.1,0.7c5.2,0.4,10.5,0.7,15.7,1
		c3.3,0.2,8.5,0.4,10.6-2.9c1.3-2.1,0.8-6.4-2.4-6.4c-2.3,0-3.5,2.7-4.3,4.5c-3,7.5-2,16.3-1.9,24.2c0.2,10,0.2,20.1,0.3,30.1
		C231.8,75.8,233.2,75.8,233.2,74.9L233.2,74.9z"/>
</g>
<g>
	<path class="st0" d="M112.2,25.7c5.5-0.7,10.4-5.7,12.8-10.5c1.6-3.3,2.9-8.9-2.2-9.5c-5.3-0.6-5.3,5.7-4.1,9.2
		c1.8,5.5,6.9,9.6,12.5,10.6c0.9,0.2,1.3-1.2,0.4-1.3c-4.9-0.9-8.9-3.9-11.1-8.4c-1.3-2.6-2.4-8.5,2-8.6c4.6-0.1,2.1,6.1,1,8.2
		c-2.1,4-6.5,8.5-11.2,9.1C111.3,24.4,111.3,25.8,112.2,25.7L112.2,25.7z"/>
</g>
<g>
	<path class="st0" d="M60.8,81.9L60.8,81.9c-0.5-0.1-0.9-0.2-1.3-0.2c-1.1,0-1.7,0.4-1.7,1.2c0,0.7,0.7,1.2,1.5,1.5
		c0.4,0.2,0.8,0.3,1.2,0.5c0.8,0.3,1.5,1,1.5,2.1c0,1.4-1,2.1-2.8,2.1c-0.9,0-1.8-0.2-2.4-0.5v-1.7h0.7v1.1c0.6,0.2,1.2,0.3,1.8,0.3
		c1.1,0,1.8-0.5,1.8-1.3c0-0.7-0.7-1.3-1.5-1.6c-1.2-0.5-2.7-1-2.7-2.5c0-1.2,1-2,2.7-2c0.7,0,1.4,0.1,2,0.4V83h-0.7V81.9z"/>
	<path class="st0" d="M72.4,81.7h-1v4.4c0,1.9-1,2.9-3,2.9c-1.9,0-2.9-1-2.9-2.8v-4.5h-1v-0.7h2.9v0.7h-1v4.4c0,1.4,0.7,2.1,2,2.1
		c1.3,0,2-0.7,2-2.1v-4.5h-1v-0.7h2.9V81.7z"/>
	<path class="st0" d="M82.9,81.7H82l-2.7,7.2h-0.9l-2.7-7.2h-0.9v-0.7h2.8v0.7h-0.9l2.2,6.1l2.2-6.1h-0.9v-0.7h2.8V81.7z"/>
	<path class="st0" d="M85.3,85c0-2.6,1.3-4.1,3.6-4.1c2.2,0,3.4,1.4,3.4,4c0,2.6-1.3,4.1-3.6,4.1C86.6,89,85.3,87.6,85.3,85z
		 M86.3,85c0,2.1,0.9,3.2,2.5,3.2c1.7,0,2.6-1.2,2.6-3.3c0-2.1-0.9-3.2-2.5-3.2C87.2,81.7,86.3,82.9,86.3,85z"/>
	<path class="st0" d="M104.7,81.9L104.7,81.9c-0.5-0.1-0.9-0.2-1.3-0.2c-1.1,0-1.7,0.4-1.7,1.2c0,0.7,0.7,1.2,1.5,1.5
		c0.4,0.2,0.8,0.3,1.2,0.5c0.8,0.3,1.5,1,1.5,2.1c0,1.4-1,2.1-2.8,2.1c-0.9,0-1.8-0.2-2.4-0.5v-1.7h0.7v1.1c0.6,0.2,1.2,0.3,1.8,0.3
		c1.1,0,1.8-0.5,1.8-1.3c0-0.7-0.7-1.3-1.5-1.6c-1.2-0.5-2.7-1-2.7-2.5c0-1.2,1-2,2.7-2c0.7,0,1.4,0.1,2,0.4V83h-0.7V81.9z"/>
	<path class="st0" d="M115,81.1v1.9h-0.7v-1.1h-2.1v6.4h1.1v0.7h-3.1v-0.7h1.1v-6.4h-2.1v1.1h-0.7v-1.9H115z"/>
	<path class="st0" d="M117.6,85c0-2.6,1.3-4.1,3.6-4.1c2.2,0,3.4,1.4,3.4,4c0,2.6-1.3,4.1-3.6,4.1C118.9,89,117.6,87.6,117.6,85z
		 M118.6,85c0,2.1,0.9,3.2,2.5,3.2c1.7,0,2.6-1.2,2.6-3.3c0-2.1-0.9-3.2-2.5-3.2C119.5,81.7,118.6,82.9,118.6,85z"/>
	<path class="st0" d="M135.6,81.7h-1v7.2h-0.8l-4.4-6.3v5.6h1v0.7h-2.9v-0.7h1v-6.5h-1v-0.7h1.8l4.4,6.2v-5.6h-1v-0.7h2.8V81.7z"/>
	<path class="st0" d="M138.6,85c0-2.6,1.3-4.1,3.6-4.1c2.2,0,3.4,1.4,3.4,4c0,2.6-1.3,4.1-3.6,4.1C139.8,89,138.6,87.6,138.6,85z
		 M139.5,85c0,2.1,0.9,3.2,2.5,3.2c1.7,0,2.6-1.2,2.6-3.3c0-2.1-0.9-3.2-2.5-3.2C140.4,81.7,139.5,82.9,139.5,85z"/>
	<path class="st0" d="M161.7,81.7h-0.9l-2.7,7.2h-0.9l-2.7-7.2h-0.9v-0.7h2.8v0.7h-0.9l2.2,6.1l2.2-6.1h-0.9v-0.7h2.8V81.7z"/>
	<path class="st0" d="M166.2,81.7v6.5h1v0.7h-2.9v-0.7h1v-6.5h-1v-0.7h2.9v0.7H166.2z"/>
	<path class="st0" d="M178.2,81.7h-1v7.2h-0.8l-4.4-6.3v5.6h1v0.7h-2.9v-0.7h1v-6.5h-1v-0.7h1.8l4.4,6.2v-5.6h-1v-0.7h2.8V81.7z"/>
	<path class="st0" d="M181.1,85c0-2.6,1.3-4.1,3.6-4.1c2.2,0,3.4,1.4,3.4,4c0,2.6-1.3,4.1-3.6,4.1C182.3,89,181.1,87.6,181.1,85z
		 M182,85c0,2.1,0.9,3.2,2.5,3.2c1.7,0,2.6-1.2,2.6-3.3c0-2.1-0.9-3.2-2.5-3.2C183,81.7,182,82.9,182,85z"/>
</g>
</svg>
