<?xml version="1.0" encoding="UTF-8"?>
<!-- Generator: Adobe Illustrator 20.1.0, SVG Export Plug-In . SVG Version: 6.00 Build 0)  -->
<svg version="1.1" id="Layer_1" xmlns="http://www.w3.org/2000/svg" xmlns:xlink="http://www.w3.org/1999/xlink" x="0px" y="0px" viewBox="0 0 244.3 200" style="enable-background:new 0 0 244.3 200;" xml:space="preserve">
<style type="text/css">
	.st0{fill:#010101;}
	.st1{fill:#DA9A28;}
</style>
<path class="st0" d="M60.9,125.3c0,24.3-12.5,27.2-19.2,27.2c-13.4,0-25.3-10.9-25.3-30.7c0-19.2,9.7-26.2,20.6-26.2  C48.4,95.7,60.9,105.3,60.9,125.3 M72.5,123.1c0-19.4-13.8-31.4-33.6-31.4c-24.3,0-34,18.6-34,32.1c0,14.9,9.5,32.9,33.8,32.9  c4.4,0,9.7-0.9,13-2.2l0.6-0.3c0,0,21.6-7.2,33-1c0,0-5.6-11.6-19.5-10.3C69.4,138.3,72.5,131.6,72.5,123.1 M138.2,102.9  c0-0.5-0.5-0.7-1.5-0.7c-2.8,0-7.7,0.2-8.5,0.2c-0.1,0-5-0.2-8.7-0.2c-1,0-1.5,0.2-1.5,0.7c0,0.5,0.4,0.7,1.2,0.7  c0.8,0,2.1,0.1,2.7,0.2c2.3,0.7,2.9,1.4,3.1,3.8c0.1,2.2,0.2,4.2,0.2,14.9v8.9c0,7.2-0.2,13.4-4.2,17.2c-2.9,2.8-6.6,3.7-9.8,3.7  c-2.5,0-6-0.3-9.2-2.8c-3.6-2.8-5.6-6.8-5.6-17.1v-9.9c0-10.7,0-12.7,0.2-14.9c0.2-2.5,0.7-3.5,2.7-3.8c0.9-0.2,1.3-0.2,2.2-0.2  c0.8,0,1.2-0.3,1.2-0.7c0-0.5-0.5-0.7-1.6-0.7c-2.7,0-7.6,0.2-9.4,0.2c-2.2,0-7-0.2-10.9-0.2c-1.1,0-1.6,0.2-1.6,0.7  c0,0.5,0.4,0.7,1.2,0.7c1,0,2.2,0.1,2.8,0.2c2.3,0.7,3,1.3,3.2,3.8c0.2,2.2,0.1,4.2,0.1,14.9V133c0,10.2,2.9,15.4,6.6,18.7  c5.3,4.6,12.9,4.8,16.7,4.8c4.7,0,10.3-0.7,15.4-5.1c6.1-5.1,7-13.4,7-21.2v-7.5c0-10.7,0.1-12.7,0.2-14.9c0.2-2.5,0.7-3.5,2.7-3.8  c0.9-0.2,1.3-0.2,2.2-0.2C137.8,103.6,138.2,103.4,138.2,102.9 M179.6,106.9c0.2-3.2,0.6-4.1,0.6-4.6c0-0.3-0.1-0.7-0.5-0.7  c-0.3,0-0.7,0.3-1.2,0.3c-0.6,0.1-1.7,0.3-3.1,0.4c-1.4,0.1-17.6,0-19.9,0c-2.1,0-6.7-0.2-10.5-0.2c-1.1,0-1.7,0.2-1.7,0.7  c0,0.5,0.5,0.7,1.2,0.7c1.1,0,2.3,0.1,2.9,0.2c2.3,0.7,3,1.4,3.2,3.8c0.1,2.2,0.1,4.2,0.1,14.9v12.4c0,6.5,0,12-0.3,15  c-0.3,2.1-0.7,3.4-2.2,3.7c-0.7,0.2-1.5,0.2-2.6,0.2c-0.9,0-1.2,0.4-1.2,0.7c0,0.5,0.5,0.7,1.4,0.7c1.5,0,3.3-0.1,5.1-0.2  c1.7,0,3.3-0.1,4.1-0.1c2.2,0,4.9,0.1,8.5,0.2c3.6,0.2,8,0.3,13.4,0.3c2.7,0,3.4,0,3.9-1.8c0.4-1.4,1-6.2,1-7.8  c0-0.7-0.1-1.7-0.7-1.7c-0.5,0-0.7,0.3-0.8,1.1c-0.5,2.9-1.3,4.4-3.2,5.2c-1.9,0.8-5,0.9-6.9,0.9c-7.5,0-9.7-1.1-9.9-5.9  c-0.1-2.1,0-8,0-10.5v-5.6c0-0.4,0.1-0.7,0.4-0.7c1.8,0,10.1,0.2,11.4,0.3c2.7,0.2,3.7,1.3,4.1,2.7c0.2,0.9,0.2,1.8,0.2,2.6  c0,0.3,0.2,0.6,0.7,0.6c0.7,0,0.8-1,0.8-1.6c0-0.5,0.2-3.3,0.3-4.7c0.4-3.6,0.6-4.7,0.6-5.1c0-0.4-0.3-0.8-0.6-0.8  c-0.3,0-0.6,0.4-1.2,0.9c-0.7,0.7-1.7,0.9-3.5,1.1c-1.7,0.2-11.1,0.2-12.8,0.2c-0.4,0-0.5-0.3-0.5-0.7v-17.4c0-0.4,0.2-0.7,0.5-0.7  c1.5,0,10.2,0.2,11.4,0.3c3.7,0.3,4.2,1.3,4.8,2.6c0.4,0.8,0.5,2.1,0.5,2.6c0,0.6,0.1,0.9,0.6,0.9c0.6,0,0.7-0.8,0.8-1.2  C179.4,110.7,179.6,107.6,179.6,106.9 M237.6,103.2c0-1.1-0.1-1.5-0.6-1.5c-0.3,0-0.8,0.2-2,0.3c-1.1,0.2-2.7,0.3-5,0.3h-29.6  c-2.4,0-5.1-0.1-7.3-0.3c-1.8-0.3-2.6-0.8-3.2-0.8c-0.4,0-0.7,0.4-0.8,1.3c-0.2,0.6-1.6,7.4-1.6,8.5c0,0.7,0.2,1.2,0.7,1.2  c0.5,0,0.7-0.3,0.8-0.9c0.2-0.5,0.5-1.4,1.2-2.4c1.1-1.6,2.8-2.1,7.1-2.2l10.9-0.2v28.5c0,6.5,0,12-0.3,15c-0.2,2.1-0.7,3.4-2.2,3.7  c-0.6,0.2-1.5,0.2-2.6,0.2c-0.9,0-1.2,0.4-1.2,0.7c0,0.5,0.5,0.7,1.4,0.7c2.9,0,7.9-0.2,9.5-0.2c2.1,0,7,0.2,11.8,0.2  c0.8,0,1.4-0.2,1.4-0.7c0-0.3-0.3-0.7-1.2-0.7c-1.1,0-2.7-0.1-3.7-0.2c-2.2-0.3-2.6-1.7-2.8-3.7c-0.3-3.1-0.4-8.6-0.4-15.1v-28.5  l9.2,0.2c6.6,0.1,8.5,2.2,8.6,4.1l0.1,0.7c0.1,1.1,0.2,1.4,0.8,1.4c0.4,0,0.6-0.4,0.7-1.2C237.4,109.9,237.6,104.7,237.6,103.2"/>
<g>
	<path class="st1" d="M125.7,80.4c-32.2-0.2-31-47.6-31-47.6c17.1,0,15.7-16.2,15.7-16.2H141c0,0-1.4,16.2,15.7,16.2   C156.7,32.8,157.8,80.3,125.7,80.4 M160.7,32.7l-0.1-3.9h-3.9c-4,0-7-1.1-8.9-3.1c-3.4-3.5-3-12.3-3-13h0V6.4H135v6.3h-4.4V6.4   h-9.8v6.2h-4.4V6.4h-9.8v6.3h0c0,0.7,0.2,9.4-3,13c-1.8,2.1-4.9,3.1-8.9,3.1h-3.9l-0.1,3.9c0,1.1-0.5,28.3,13.6,42.8   c5.7,5.9,12.9,8.9,21.5,8.9h0h0c8.5,0,15.8-3,21.4-8.9C161.2,61.1,160.7,33.9,160.7,32.7"/>
	<path class="st1" d="M126.5,56.4c0,0,4.1,8.5,6.3,9.4c0,0,1-2.6,1.3-2.2c0.7,1,5.8,3.2,5.8,3.2c0.3-0.6-0.6-2.6,0.3-2.6   c4.2,0.1,6.8-4.3,6.8-4.3s-3.2-3.3-5.2-4.2c-0.4-1.4,4.3,0.3,5.3-2.4c0.1-0.4-1.9-0.8-1.7-2.2c5-1.9,2.6-11.7,2.6-11.7   s-6.5-0.9-11.9,3.6c1.6-2.2,2.2-6.8,2.2-6.8s-3.3,1.5-3.1,0.9c2.2-7.4-9.9-12.7-9.9-12.7S113.6,30,115.5,37c0,0-3.7-1.6-3.7-0.9   c0,2.7,3.4,8,2.4,7.3c-7.5-5.7-11.7-4-11.7-4s-1.7,9,2.6,12l-1.8,1.9c0,0,5.8,1.4,5.3,2.3c-0.5,0.8-5.1,4.3-5.1,4.3   s4.6,5.4,7.2,4.2c-0.1,1.3,0,2.6,0,2.6s3.7-1.6,5.8-3.2c0.6-0.5,1.2,2.4,1.2,2.4c1.5-0.2,6.5-9.4,6.5-9.4c-1.4,6.5,3.1,12,3.1,12   l2.2-0.6C129.6,68,124.7,62.6,126.5,56.4z"/>
</g>
<g>
	<path class="st0" d="M71.5,191.5l2.9-7.1c0.5-1.2,1.4-3.5,2.7-6.9h0.8c0.5,1.5,1.1,3.5,2,5.8l3,8.4l2.3-7.8   c0.2-0.8,0.6-2.2,1.1-4.3c0-0.2,0.1-0.3,0.1-0.5c0-0.1-0.1-0.3-0.2-0.3c-0.1-0.1-0.4-0.1-0.9-0.2l-1.1-0.1v-0.8   c1.2,0.1,2.1,0.1,2.7,0.1c0.7,0,1.6,0,2.6-0.1v0.8h-0.6c-0.3,0-0.5,0.1-0.6,0.2c-0.3,0.3-0.9,2-1.9,5.2c-1.3,4.3-2.4,8.1-3.3,11.6   h-1.3c-0.1-0.6-0.3-1-0.4-1.2c-0.4-1.1-1.2-3.4-2.5-7l-2-5.6l-2.3,5.6c-1.4,3.3-2.4,6.1-3.1,8.2h-1.2l-0.7-3   c-0.2-0.9-0.4-1.9-0.6-2.9l-2.2-9.3c-0.2-0.9-0.4-1.4-0.6-1.6c-0.2-0.2-0.5-0.2-1-0.2h-0.5v-0.8c1.2,0.1,2.2,0.1,3.1,0.1   c0.8,0,2,0,3.4-0.1v0.8h-0.8c-0.6,0-0.9,0-1.1,0.1c-0.2,0.1-0.3,0.3-0.3,0.5c0,0.1,0,0.3,0.1,0.5l0.9,4.1L71.5,191.5z"/>
	<path class="st0" d="M105.5,194.5h0.8c0.8,0,1.2-0.2,1.4-0.6c0.2-0.4,0.2-2.1,0.2-5.3v-4.2c0-3.3-0.1-5.1-0.2-5.5   c-0.1-0.3-0.5-0.5-1.2-0.5h-1v-0.8c1.4,0.1,2.7,0.1,4.1,0.1c1.1,0,2.1,0,3-0.1v0.8h-1c-0.6,0-1,0.1-1.1,0.2   c-0.1,0.1-0.2,0.5-0.3,1.1c0,0.9-0.1,2.5-0.1,4.7v4.3c0,3.2,0.1,5,0.2,5.3c0.1,0.3,0.6,0.5,1.4,0.5h0.8v0.8c-1-0.1-2.1-0.1-3.3-0.1   c-1.4,0-2.7,0-3.8,0.1V194.5z"/>
	<path class="st0" d="M132.6,180.5v8.6c0,1.9,0,3.3,0.1,4.1c0.1,0.6,0.2,0.9,0.3,1.1c0.1,0.1,0.5,0.2,1.2,0.3l0.8,0.1v0.8   c-0.9-0.1-1.7-0.1-2.4-0.1c-0.5,0-1.7,0-3.5,0.1v-0.8h0.9c0.5,0,0.9-0.1,1.1-0.2c0.2-0.1,0.3-0.4,0.3-0.9c0.1-0.9,0.1-2.1,0.1-3.7   v-6.2c0-1.2,0-2.3,0-3.4c0-0.5-0.1-0.8-0.2-1c-0.1-0.2-0.3-0.3-0.5-0.5c-0.2-0.1-0.5-0.2-0.9-0.2h-0.8v-0.8c1,0.1,1.8,0.1,2.4,0.1   c0.6,0,1.2,0,2-0.1c0.8,1,1.6,2,2.3,2.9c0.7,0.9,1.5,1.9,2.2,2.9l4.2,5.2c1.5,1.9,2.6,3.2,3.3,3.9v-7.9c0-3.3-0.1-5.1-0.2-5.5   c-0.1-0.3-0.6-0.5-1.4-0.6l-0.9-0.1v-0.8c1.3,0.1,2.4,0.1,3.1,0.1c0.8,0,1.8,0,3-0.1v0.8h-1c-0.8,0-1.2,0.3-1.3,0.8   c-0.1,0.3-0.1,2.1-0.1,5.4v5.6c0,1.5,0.1,3.3,0.2,5.4c-1.1-0.2-1.8-0.3-2-0.4c-0.2-0.1-0.4-0.2-0.5-0.4c-0.9-1-1.9-2.1-2.9-3.4   L132.6,180.5z"/>
	<path class="st0" d="M170.4,186.9v3l0,1.7c0,1.1,0,1.9,0,2.4c1.2,0.1,2.5,0.1,3.9,0.1c0.9,0,1.7,0,2.3-0.1c0.4,0,0.8-0.2,1.3-0.3   c0.2-0.7,0.4-1.6,0.6-2.7h0.8c-0.2,1.8-0.3,3-0.3,3.6l0,0.6c-0.9,0.1-1.9,0.1-2.8,0.1l-1.9,0c-2.1-0.1-3.7-0.1-4.7-0.1   c-1,0-2.2,0-3.8,0.1v-0.8h0.4c0.7,0,1.2-0.1,1.4-0.2c0.2-0.1,0.3-0.5,0.4-1c0.1-0.5,0.1-1.7,0.1-3.4v-6.8c0-1.1,0-2-0.1-2.7   c-0.1-0.7-0.1-1.1-0.2-1.3c-0.1-0.1-0.2-0.2-0.3-0.3c-0.1-0.1-0.5-0.1-1.1-0.2l-1-0.1v-0.8h1.3l1.3,0c0.7,0,1.3,0,1.7,0l4.8-0.1   l2.3,0c0.8,0,1.5,0,2.3,0.1c-0.3,1-0.5,2.3-0.5,3.8h-0.8c0-0.9,0-1.7-0.1-2.3c-1-0.4-2.2-0.5-3.6-0.5c-1.1,0-2.3,0-3.6,0.1   c0,0.8,0,1.5,0,2.3l0,1.9v2.5c0.8,0.1,1.5,0.1,2.2,0.1c2,0,3.1-0.1,3.3-0.2c0.3-0.1,0.4-0.6,0.4-1.3v-0.8h0.8   c-0.1,1.2-0.1,2.2-0.1,3c0,0.8,0,1.7,0.1,2.8h-0.8v-0.7c0-0.8-0.2-1.3-0.5-1.5c-0.3-0.2-1.4-0.3-3.3-0.3   C171.9,186.8,171.2,186.8,170.4,186.9z"/>
</g>
</svg>